<svg xmlns="http://www.w3.org/2000/svg" width="64" height="64" viewBox="0 0 64 64">
  <!-- 十字架部分 -->
  <path d="M32,5 C28,5 25,8 25,12 L25,25 L12,25 C8,25 5,28 5,32 C5,36 8,39 12,39 L25,39 L25,52 C25,56 28,59 32,59 C36,59 39,56 39,32 L39,39 L52,39 C56,39 59,36 59,32 C59,28 56,25 52,25 L39,25 L39,12 C39,8 36,5 32,5 Z" fill="#FFB02E" stroke="#0046AA" stroke-width="2"/>
  
  <!-- 腳印 -->
  <g transform="translate(40, 45) scale(0.15)">
    <path d="M10,0 C15,5 25,5 30,0 C35,-5 35,-15 30,-20 C25,-25 15,-25 10,-20 C5,-15 5,-5 10,0 Z" fill="#FFB02E" />
    <path d="M-5,-5 C0,0 10,0 15,-5 C20,-10 20,-20 15,-25 C10,-30 0,-30 -5,-25 C-10,-20 -10,-10 -5,-5 Z" fill="#FFB02E" />
    <path d="M-15,-15 C-10,-10 0,-10 5,-15 C10,-20 10,-30 5,-35 C0,-40 -10,-40 -15,-35 C-20,-30 -20,-20 -15,-15 Z" fill="#0046AA" />
    <path d="M-25,-30 C-20,-25 -10,-25 -5,-30 C0,-35 0,-45 -5,-50 C-10,-55 -20,-55 -25,-50 C-30,-45 -30,-35 -25,-30 Z" fill="#0046AA" />
  </g>
</svg> 