<svg xmlns="http://www.w3.org/2000/svg" width="100" height="100" viewBox="0 0 100 100">
  <!-- 十字架部分 -->
  <path d="M50,10 C45,10 40,15 40,20 L40,40 L20,40 C15,40 10,45 10,50 C10,55 15,60 20,60 L40,60 L40,80 C40,85 45,90 50,90 C55,90 60,85 60,50 L60,60 L80,60 C85,60 90,55 90,50 C90,45 85,40 80,40 L60,40 L60,20 C60,15 55,10 50,10 Z" fill="#FFB02E" stroke="#0046AA" stroke-width="3"/>
  
  <!-- 腳印 -->
  <g transform="translate(65, 70) scale(0.25)">
    <path d="M10,0 C15,5 25,5 30,0 C35,-5 35,-15 30,-20 C25,-25 15,-25 10,-20 C5,-15 5,-5 10,0 Z" fill="#FFB02E" />
    <path d="M-5,-5 C0,0 10,0 15,-5 C20,-10 20,-20 15,-25 C10,-30 0,-30 -5,-25 C-10,-20 -10,-10 -5,-5 Z" fill="#FFB02E" />
    <path d="M-15,-15 C-10,-10 0,-10 5,-15 C10,-20 10,-30 5,-35 C0,-40 -10,-40 -15,-35 C-20,-30 -20,-20 -15,-15 Z" fill="#0046AA" />
    <path d="M-25,-30 C-20,-25 -10,-25 -5,-30 C0,-35 0,-45 -5,-50 C-10,-55 -20,-55 -25,-50 C-30,-45 -30,-35 -25,-30 Z" fill="#0046AA" />
  </g>
</svg> 